<mxfile host="app.diagrams.net" modified="2022-01-11T20:52:48.565Z" agent="5.0 (Windows NT 10.0; Win64; x64) AppleWebKit/537.36 (KHTML, like Gecko) Chrome/97.0.4692.71 Safari/537.36" etag="E_966tDoJO8aoIUTOIUy" version="16.2.4" type="github" pages="3">
  <diagram id="IEjKJzmFIG6WxhwvaB6H" name="拥塞控制">
    <mxGraphModel dx="1422" dy="754" grid="1" gridSize="10" guides="1" tooltips="1" connect="1" arrows="1" fold="1" page="1" pageScale="1" pageWidth="827" pageHeight="1169" math="0" shadow="0">
      <root>
        <mxCell id="0" />
        <mxCell id="1" parent="0" />
        <mxCell id="AKzolggghUhKt4FHMR0y-1" value="拥塞控制" style="rounded=0;whiteSpace=wrap;html=1;" parent="1" vertex="1">
          <mxGeometry x="354" y="370" width="120" height="60" as="geometry" />
        </mxCell>
        <mxCell id="AKzolggghUhKt4FHMR0y-2" value="慢启动" style="rounded=1;whiteSpace=wrap;html=1;" parent="1" vertex="1">
          <mxGeometry x="80" y="210" width="120" height="60" as="geometry" />
        </mxCell>
        <mxCell id="AKzolggghUhKt4FHMR0y-3" value="拥塞避免" style="rounded=1;whiteSpace=wrap;html=1;" parent="1" vertex="1">
          <mxGeometry x="280" y="210" width="120" height="60" as="geometry" />
        </mxCell>
        <mxCell id="AKzolggghUhKt4FHMR0y-4" value="" style="rounded=1;whiteSpace=wrap;html=1;" parent="1" vertex="1">
          <mxGeometry x="490" y="210" width="120" height="60" as="geometry" />
        </mxCell>
        <mxCell id="AKzolggghUhKt4FHMR0y-5" value="" style="rounded=1;whiteSpace=wrap;html=1;" parent="1" vertex="1">
          <mxGeometry x="670" y="210" width="120" height="60" as="geometry" />
        </mxCell>
        <mxCell id="vVpfQLxoxTFoIucxwX-9-2" value="用来确定cwnd" style="text;html=1;strokeColor=none;fillColor=none;align=center;verticalAlign=middle;whiteSpace=wrap;rounded=0;" vertex="1" parent="1">
          <mxGeometry x="110" y="160" width="60" height="30" as="geometry" />
        </mxCell>
        <mxCell id="vVpfQLxoxTFoIucxwX-9-3" value="突然间流量过多（削峰）" style="text;html=1;strokeColor=none;fillColor=none;align=center;verticalAlign=middle;whiteSpace=wrap;rounded=0;" vertex="1" parent="1">
          <mxGeometry x="310" y="160" width="60" height="30" as="geometry" />
        </mxCell>
      </root>
    </mxGraphModel>
  </diagram>
  <diagram id="mJIxgIZalnrS10OCZlH2" name="慢启动">
    <mxGraphModel dx="1422" dy="754" grid="1" gridSize="10" guides="1" tooltips="1" connect="1" arrows="1" fold="1" page="1" pageScale="1" pageWidth="827" pageHeight="1169" math="0" shadow="0">
      <root>
        <mxCell id="e3XffNDOhL8cqO3-dw5B-0" />
        <mxCell id="e3XffNDOhL8cqO3-dw5B-1" parent="e3XffNDOhL8cqO3-dw5B-0" />
      </root>
    </mxGraphModel>
  </diagram>
  <diagram id="ujRyEoWt93aCk7uCOhgA" name="拥塞避免">
    <mxGraphModel dx="1422" dy="754" grid="1" gridSize="10" guides="1" tooltips="1" connect="1" arrows="1" fold="1" page="1" pageScale="1" pageWidth="827" pageHeight="1169" math="0" shadow="0">
      <root>
        <mxCell id="KvLTKr4QOXmQUMHZEY6p-0" />
        <mxCell id="KvLTKr4QOXmQUMHZEY6p-1" parent="KvLTKr4QOXmQUMHZEY6p-0" />
      </root>
    </mxGraphModel>
  </diagram>
</mxfile>
